# xmcd CD database file
#
# Track frame offsets:
#	150
#	18883
#	46238
#	71940
#	96077
#	107581
#	129166
#	155951
#	173648
#	194517
#	224836
#
# Disc length: 3268 seconds
#
# Revision: 0
# Processed by: cddbd v1.5.2PL0 Copyright (c) Steve Scherf et al.
# Submitted via: CDex 1.70beta2
#
DISCID=9d0cc20b
DTITLE=Arthur Maia - O tempo e a Música
DYEAR=2011
DGENRE=Jazz
TTITLE0=Abismo de rosas
TTITLE1=Forró em havana
TTITLE2=Macabu
TTITLE3=Brejeiro
TTITLE4=Um abraço no João
TTITLE5=Tuca
TTITLE6=Montains
TTITLE7=Minha palhoça
TTITLE8=Frevo do compadre
TTITLE9=To nico
TTITLE10=O tempo e a música
EXTD=YEAR: 2011
EXTT0=
EXTT1=
EXTT2=
EXTT3=
EXTT4=
EXTT5=
EXTT6=
EXTT7=
EXTT8=
EXTT9=
EXTT10=
PLAYORDER=
